<svg id="amazon-s3" xmlns="http://www.w3.org/2000/svg" width="73.421" height="30" viewBox="0 0 73.421 30">
  <rect id="Rectangle_4357" data-name="Rectangle 4357" width="73.421" height="30" fill="none" opacity="0"/>
  <g id="Amazon_S3" data-name="Amazon S3" transform="translate(3.784 4.991)">
    <path id="Path_5008" data-name="Path 5008" d="M498.653,679.234a3.4,3.4,0,0,0,.124,1,6.846,6.846,0,0,0,.361.812.538.538,0,0,1,.079.258.426.426,0,0,1-.214.337l-.711.474a.585.585,0,0,1-.292.1.554.554,0,0,1-.337-.158,3.1,3.1,0,0,1-.406-.53c-.113-.192-.226-.406-.35-.667a4.164,4.164,0,0,1-3.315,1.557,3.094,3.094,0,0,1-2.256-.812,3.184,3.184,0,0,1,.19-4.49,4.1,4.1,0,0,1,2.764-.88,8.709,8.709,0,0,1,1.2.09c.416.055.846.148,1.3.248v-.822a2.5,2.5,0,0,0-.53-1.8,2.575,2.575,0,0,0-1.839-.519,4.873,4.873,0,0,0-1.217.148,9.188,9.188,0,0,0-1.217.385,4.127,4.127,0,0,1-.4.148.482.482,0,0,1-.179.034c-.158,0-.237-.113-.237-.35v-.553a.825.825,0,0,1,.079-.4.934.934,0,0,1,.316-.237,6.252,6.252,0,0,1,1.42-.509,7.106,7.106,0,0,1,1.76-.213,4.119,4.119,0,0,1,2.954.914,3.7,3.7,0,0,1,.933,2.775v3.655Zm-4.58,1.715a3.428,3.428,0,0,0,1.162-.2,2.616,2.616,0,0,0,1.072-.722,1.741,1.741,0,0,0,.385-.722,4.082,4.082,0,0,0,.113-.98v-.474a10.235,10.235,0,0,0-1.038-.192,8.431,8.431,0,0,0-1.059-.069,2.614,2.614,0,0,0-1.681.451,1.855,1.855,0,0,0-.137,2.493,1.617,1.617,0,0,0,1.183.419Zm9.057,1.217a.659.659,0,0,1-.43-.113.933.933,0,0,1-.237-.44l-2.651-8.717a1.647,1.647,0,0,1-.1-.451.262.262,0,0,1,.213-.282H501.1a.627.627,0,0,1,.44.113,1.132,1.132,0,0,1,.227.44l1.884,7.465,1.76-7.465a.564.564,0,0,1,.664-.553h.9a.676.676,0,0,1,.451.113.8.8,0,0,1,.214.44l1.781,7.557,1.95-7.557a.916.916,0,0,1,.227-.44.761.761,0,0,1,.44-.113h1.049a.252.252,0,0,1,.282.213v.069a.835.835,0,0,1-.024.179,2.061,2.061,0,0,1-.079.282l-2.719,8.719a.876.876,0,0,1-.237.44.727.727,0,0,1-.429.113h-.97a.677.677,0,0,1-.451-.113.828.828,0,0,1-.213-.451l-1.739-7.276-1.737,7.262a.865.865,0,0,1-.213.451.719.719,0,0,1-.45.113Zm14.493.3a7.5,7.5,0,0,1-1.737-.2,5.1,5.1,0,0,1-1.3-.451.788.788,0,0,1-.351-.316.77.77,0,0,1-.068-.316v-.574c0-.237.09-.351.258-.351a.61.61,0,0,1,.2.034c.069.024.169.069.282.113a5.921,5.921,0,0,0,1.241.4,6.731,6.731,0,0,0,1.341.134,3.048,3.048,0,0,0,1.647-.372,1.221,1.221,0,0,0,.588-1.072,1.1,1.1,0,0,0-.306-.791,2.864,2.864,0,0,0-1.138-.588l-1.636-.509a3.432,3.432,0,0,1-1.805-1.152,2.689,2.689,0,0,1-.564-1.636,2.411,2.411,0,0,1,.306-1.252,2.906,2.906,0,0,1,.812-.925,3.507,3.507,0,0,1,1.173-.588,4.7,4.7,0,0,1,1.42-.192,5.6,5.6,0,0,1,.756.045c.258.034.5.079.733.124a5.048,5.048,0,0,1,.643.179,2.949,2.949,0,0,1,.474.2.917.917,0,0,1,.337.282.556.556,0,0,1,.1.372v.53c0,.237-.09.361-.258.361a1.564,1.564,0,0,1-.43-.134,5.1,5.1,0,0,0-2.166-.44,2.913,2.913,0,0,0-1.5.316,1.085,1.085,0,0,0-.53,1,1.032,1.032,0,0,0,.337.8,3.361,3.361,0,0,0,1.241.619l1.6.509a3.4,3.4,0,0,1,1.747,1.083,2.5,2.5,0,0,1,.519,1.578,2.784,2.784,0,0,1-.293,1.307,3.188,3.188,0,0,1-.822.994,3.56,3.56,0,0,1-1.252.632,5.207,5.207,0,0,1-1.613.245Z" transform="translate(-489.098 -671.86)" fill="#252f3e"/>
    <path id="Path_5009" data-name="Path 5009" d="M467.94,1180.259a24.326,24.326,0,0,1-13.737,4.2,24.849,24.849,0,0,1-16.769-6.4c-.35-.316-.034-.743.385-.5A33.306,33.306,0,0,0,467.4,1179.4c.617-.285,1.146.4.538.856Z" transform="translate(-437.283 -1164.165)" fill="#f90"/>
    <path id="Path_5010" data-name="Path 5010" d="M1487.552,1153.613c-.474-.608-3.135-.292-4.343-.147-.361.045-.416-.271-.089-.509,2.121-1.489,5.6-1.059,6.01-.564s-.113,3.992-2.1,5.662c-.306.258-.6.124-.461-.213C1487.023,1156.725,1488.026,1154.211,1487.552,1153.613Z" transform="translate(-1455.352 -1139.28)" fill="#f90"/>
    <path id="Path_5011" data-name="Path 5011" d="M2053.707,692.861a1.561,1.561,0,0,0,.485.564,2.019,2.019,0,0,0,.711.316,3.423,3.423,0,0,0,.835.1c.214,0,.417-.024.633-.045a2.138,2.138,0,0,0,.632-.192,1.349,1.349,0,0,0,.485-.385.954.954,0,0,0,.192-.619.88.88,0,0,0-.258-.654,2.2,2.2,0,0,0-.678-.416,6.55,6.55,0,0,0-.948-.292c-.351-.079-.712-.179-1.073-.282a9.556,9.556,0,0,1-1.093-.337,3.468,3.468,0,0,1-.949-.53,2.343,2.343,0,0,1-.935-1.963,2.545,2.545,0,0,1,.337-1.331,3.038,3.038,0,0,1,.857-.949,3.886,3.886,0,0,1,1.2-.564,4.938,4.938,0,0,1,1.341-.179,6.668,6.668,0,0,1,1.5.169,3.54,3.54,0,0,1,1.276.564,2.88,2.88,0,0,1,.891.993,3.13,3.13,0,0,1,.326,1.465h-2.118a1.8,1.8,0,0,0-.192-.733,1.192,1.192,0,0,0-.429-.461,2.01,2.01,0,0,0-.609-.237,4.178,4.178,0,0,0-.743-.068,2.907,2.907,0,0,0-.53.055,1.538,1.538,0,0,0-.484.192,1.134,1.134,0,0,0-.351.35.852.852,0,0,0-.135.53.881.881,0,0,0,.113.474.914.914,0,0,0,.44.337,6.624,6.624,0,0,0,.9.306c.385.1.891.237,1.512.4.179.034.441.1.778.2a3.552,3.552,0,0,1,.979.461,2.912,2.912,0,0,1,.846.846,2.44,2.44,0,0,1,.361,1.376,3.1,3.1,0,0,1-.271,1.276,2.749,2.749,0,0,1-.791,1.014,3.745,3.745,0,0,1-1.3.667,6.083,6.083,0,0,1-1.794.237,6.5,6.5,0,0,1-1.6-.2,3.791,3.791,0,0,1-1.365-.643,3.11,3.11,0,0,1-1.286-2.693h2.121a1.984,1.984,0,0,0,.182.883Zm10.288-3.373a1.992,1.992,0,0,0,.677-.158,1.233,1.233,0,0,0,.519-.385,1.019,1.019,0,0,0,.2-.667,1.138,1.138,0,0,0-.417-.959,1.48,1.48,0,0,0-.959-.337,1.356,1.356,0,0,0-1.138.5,1.9,1.9,0,0,0-.371,1.251h-1.885a4.086,4.086,0,0,1,.271-1.376,3.215,3.215,0,0,1,.688-1.072,2.93,2.93,0,0,1,1.049-.688,3.8,3.8,0,0,1,1.365-.248,4.125,4.125,0,0,1,1.173.169,3.517,3.517,0,0,1,1.049.519,2.856,2.856,0,0,1,.756.846,2.182,2.182,0,0,1,.293,1.162,2.34,2.34,0,0,1-.337,1.251,1.715,1.715,0,0,1-1.025.743v.034a2.14,2.14,0,0,1,1.262.777,2.28,2.28,0,0,1,.461,1.433,3,3,0,0,1-.293,1.365,2.9,2.9,0,0,1-.8,1,3.458,3.458,0,0,1-1.162.609,4.684,4.684,0,0,1-1.365.213,4.529,4.529,0,0,1-1.5-.237,3.282,3.282,0,0,1-1.152-.688,2.97,2.97,0,0,1-.732-1.117,4.1,4.1,0,0,1-.247-1.513h1.884a2.733,2.733,0,0,0,.124.743,1.894,1.894,0,0,0,.327.619,1.515,1.515,0,0,0,.519.406,1.691,1.691,0,0,0,.743.158,1.64,1.64,0,0,0,1.128-.406,1.442,1.442,0,0,0,.461-1.128,1.388,1.388,0,0,0-.214-.846,1.229,1.229,0,0,0-.553-.429,2.429,2.429,0,0,0-.732-.148c-.271-.011-.519-.024-.756-.024v-1.386a2.716,2.716,0,0,0,.688.011ZM2044.1,680.4h.791v19.85h-.791Z" transform="translate(-2001.76 -680.175)" fill="#252f3e"/>
  </g>
</svg>
