<svg xmlns="http://www.w3.org/2000/svg" width="92.368" height="30" viewBox="0 0 92.368 30">
  <g id="elephant-sql" transform="translate(-0.177)">
    <rect id="Rectangle_4358" data-name="Rectangle 4358" width="92.368" height="30" transform="translate(0.177)" fill="none" opacity="0"/>
    <g id="Group_4723" data-name="Group 4723" transform="translate(4.956 3.796)">
      <g id="Path_5013" data-name="Path 5013" transform="translate(-19.177 -16.665)" fill="#336791">
        <path d="M 30.95206832885742 39.41482162475586 C 29.50624847412109 39.41482162475586 29.13425827026367 38.27722930908203 28.95548820495605 37.73052978515625 C 28.93495750427246 37.66777038574219 28.91557884216309 37.60847854614258 28.89809799194336 37.56093978881836 C 28.65654754638672 36.90388870239258 28.67966842651367 36.11882019042969 28.71166801452637 35.03224182128906 C 28.73046684265137 34.3936767578125 28.66633605957031 33.8221435546875 28.58942604064941 33.44055557250977 C 28.05056953430176 33.86347579956055 27.39656448364258 34.08314895629883 26.65927886962891 34.08314895629883 C 26.32824897766113 34.08314895629883 25.98080825805664 34.03823089599609 25.6265983581543 33.94964981079102 C 25.11624717712402 33.82207107543945 24.52414894104004 33.48500823974609 24.53519821166992 32.95497894287109 C 24.53528594970703 32.95077896118164 24.53540802001953 32.94660568237305 24.53556442260742 32.94244384765625 C 24.51420783996582 32.96798706054688 24.49278450012207 32.99367904663086 24.47139739990234 33.01940155029297 C 24.04770851135254 33.52872848510742 23.58439826965332 33.78694152832031 23.09428787231445 33.78694152832031 C 21.91229820251465 33.78694152832031 20.86528778076172 32.30072021484375 19.89340782165527 29.24334907531738 C 19.2188777923584 27.12138938903809 18.74849891662598 24.69473075866699 18.70820808410645 23.88911056518555 C 18.61604881286621 22.04603004455566 19.01217842102051 20.64595985412598 19.88557815551758 19.7278003692627 C 20.66489791870117 18.90854072570801 21.79208755493164 18.49312973022461 23.23583793640137 18.49312973022461 C 24.74447822570801 18.49312973022461 26.18607902526855 18.95075607299805 26.76268577575684 19.15847206115723 C 27.49702835083008 18.67580986022949 28.37336730957031 18.43144035339355 29.37222862243652 18.43144035339355 C 29.40603828430176 18.43144035339355 29.44015884399414 18.43172073364258 29.47443771362305 18.43227958679199 C 30.05270767211914 18.44171142578125 30.59963989257812 18.49484825134277 31.10235786437988 18.59035491943359 C 31.50352096557617 18.45648574829102 32.48577880859375 18.1961498260498 33.692626953125 18.1961498260498 C 35.78759765625 18.1961498260498 37.51751708984375 18.99160957336426 38.69536972045898 20.49653053283691 C 39.85795211791992 21.98210144042969 38.60921478271484 26.98801803588867 36.17082214355469 30.79824256896973 C 36.29366302490234 30.83853340148926 36.48844909667969 30.87557983398438 36.78936767578125 30.87557983398438 C 37.14609909057617 30.87557983398438 37.58101654052734 30.82317924499512 38.08203887939453 30.71982955932617 C 38.23602676391602 30.68800926208496 38.36846923828125 30.67251968383789 38.48674774169922 30.67251968383789 C 38.95030975341797 30.67251968383789 39.17368698120117 30.93626976013184 39.22817993164062 31.1830997467041 C 39.40866851806641 32.00075149536133 37.89415740966797 32.72964859008789 37.72086715698242 32.8100700378418 C 37.20144653320312 33.05149078369141 36.38427734375 33.20756149291992 35.63927841186523 33.20756149291992 C 35.56678771972656 33.20756149291992 35.49529647827148 33.20597839355469 35.42677688598633 33.20286178588867 L 35.416259765625 33.2023811340332 L 35.40576934814453 33.20146179199219 L 35.18461990356445 33.18204116821289 L 35.153076171875 33.17927169799805 L 35.12212753295898 33.17255020141602 C 35.02936553955078 33.15237808227539 34.96537399291992 33.14342498779297 34.92213439941406 33.139892578125 C 34.89255523681641 33.26576232910156 34.86978912353516 33.50450897216797 34.84922790527344 33.72016143798828 C 34.83331680297852 33.88697052001953 34.8152961730957 34.07603073120117 34.78966903686523 34.2896614074707 L 34.78362655639648 34.34001922607422 L 34.76759719848633 34.38814926147461 L 34.65454483032227 34.72748184204102 C 34.64301681518555 35.19004058837891 34.58389663696289 35.40378952026367 34.52663803100586 35.61088943481445 C 34.47893905639648 35.78340148925781 34.42961883544922 35.9617805480957 34.39719772338867 36.37916946411133 C 34.27285766601562 37.97679138183594 33.35007858276367 38.97105026245117 31.65448760986328 39.33441162109375 C 31.40546798706055 39.38777160644531 31.16913795471191 39.41482162475586 30.95206832885742 39.41482162475586 Z M 26.06071472167969 31.21024703979492 C 25.84733390808105 31.44141960144043 25.52333641052246 31.79728507995605 25.15596389770508 32.21747589111328 C 25.36428642272949 32.13119125366211 25.5724983215332 32.08826446533203 25.6864185333252 32.06478118896484 C 26.56831741333008 31.88327980041504 26.61007881164551 31.83025932312012 26.88179779052734 31.48527908325195 C 26.88680458068848 31.47892379760742 26.89188766479492 31.47246932983398 26.89703559875488 31.46593856811523 C 26.60884094238281 31.42360687255859 26.32740783691406 31.33756256103516 26.06071472167969 31.21024703979492 Z" stroke="none"/>
        <path d="M 30.95207214355469 38.91482162475586 C 31.12860107421875 38.91482162475586 31.32659912109375 38.89331817626953 31.54971885681152 38.84550857543945 C 33.02679824829102 38.52898025512695 33.79220962524414 37.70870971679688 33.89869689941406 36.34045028686523 C 33.97425842285156 35.36775970458984 34.14525985717773 35.51150131225586 34.15605926513672 34.64183044433594 L 34.29322814941406 34.23011016845703 C 34.45138549804688 32.91154479980469 34.31835174560547 32.48610305786133 35.22835922241211 32.6839599609375 L 35.44950866699219 32.7033805847168 C 36.11928939819336 32.73384857177734 36.99589920043945 32.59566116333008 37.5103874206543 32.35652923583984 C 38.61824798583984 31.84237861633301 39.27529907226562 30.98396492004395 38.18294906616211 31.20952033996582 L 38.18304824829102 31.20952033996582 C 35.69051361083984 31.72365951538086 35.51916885375977 30.87974739074707 35.51916885375977 30.8797492980957 C 38.15088653564453 26.9747200012207 39.25102996826172 22.01786041259766 38.30162811279297 20.80470085144043 C 35.71157836914062 17.49541664123535 31.22807884216309 19.06048965454102 31.15325736999512 19.10111999511719 L 31.12917900085449 19.10544013977051 C 30.63673782348633 19.00321006774902 30.08563804626465 18.94231033325195 29.46623802185059 18.93221092224121 C 28.33843040466309 18.91371154785156 27.48291015625 19.22788238525391 26.8337287902832 19.72016906738281 C 26.8337287902832 19.72016906738281 18.83561706542969 16.42526435852051 19.20758819580078 23.86413955688477 C 19.28672790527344 25.44670104980469 21.47584915161133 35.83854675292969 24.08694839477539 32.6997184753418 C 25.04131889343262 31.55196952819824 25.96341896057129 30.58151054382324 25.96341896057129 30.58151054382324 C 26.42141723632812 30.88574981689453 26.96969604492188 31.04094886779785 27.54448890686035 30.98520088195801 L 27.58913803100586 30.94729042053223 C 27.57526779174805 31.08979988098145 27.58160781860352 31.22924041748047 27.60702896118164 31.39423942565918 C 26.93436813354492 32.1457405090332 27.13202857971191 32.27774047851562 25.78735733032227 32.55448913574219 C 24.42672729492188 32.8349494934082 25.22603797912598 33.33412933349609 25.7479076385498 33.4645881652832 C 26.38057899475098 33.6228141784668 27.84427833557129 33.84692764282227 28.83326721191406 32.46247863769531 L 28.7938289642334 32.62044143676758 C 29.05738830566406 32.83152008056641 29.24246788024902 33.99354934692383 29.21144866943359 35.04695892333984 C 29.18042755126953 36.10031890869141 29.15971755981445 36.82352066040039 29.36738777160645 37.38840866088867 C 29.5488452911377 37.88198852539062 29.73002433776855 38.91482162475586 30.95207214355469 38.91482162475586 M 30.95206832885742 39.91482162475586 C 29.14370727539062 39.91482162475586 28.66170883178711 38.44083023071289 28.48024749755859 37.88594055175781 C 28.46117782592773 37.82759857177734 28.44315719604492 37.77251052856445 28.42880821228027 37.73347091674805 C 28.15391731262207 36.98574066162109 28.1782283782959 36.16016006469727 28.21187782287598 35.01752090454102 C 28.2197322845459 34.75077819824219 28.21204376220703 34.49541473388672 28.19513893127441 34.26441955566406 C 27.7309627532959 34.47517013549805 27.21564292907715 34.58314895629883 26.65927886962891 34.58314895629883 C 26.28738784790039 34.58314895629883 25.89912796020508 34.53321075439453 25.50528717041016 34.43471145629883 C 25.09053039550781 34.33102798461914 24.66145896911621 34.12643051147461 24.37467956542969 33.81487274169922 C 23.9780330657959 34.12857818603516 23.54933929443359 34.28694152832031 23.09428787231445 34.28694152832031 C 21.64637756347656 34.28694152832031 20.47786712646484 32.73244094848633 19.41690826416016 29.39483070373535 C 18.70324897766113 27.1497802734375 18.24959754943848 24.72908973693848 18.20883750915527 23.91408920288086 C 18.10956764221191 21.92886924743652 18.55181884765625 20.40446090698242 19.5232982635498 19.3831901550293 C 20.40069770812988 18.4608097076416 21.64977836608887 17.99312973022461 23.23583793640137 17.99312973022461 C 24.64245414733887 17.99312973022461 25.99188232421875 18.37085342407227 26.7012767791748 18.60833740234375 C 27.47152519226074 18.15883636474609 28.36739540100098 17.93144035339355 29.37222862243652 17.93144035339355 C 29.40878868103027 17.93144035339355 29.4456672668457 17.93173027038574 29.48272895812988 17.93235015869141 C 30.04230308532715 17.94146728515625 30.57546043395996 17.98989868164062 31.07143211364746 18.07650184631348 C 31.60267448425293 17.91413116455078 32.57935333251953 17.6961498260498 33.692626953125 17.6961498260498 C 35.94696807861328 17.6961498260498 37.81303787231445 18.55793952941895 39.08910751342773 20.1883602142334 C 39.95699691772461 21.29737091064453 39.64015960693359 23.46212959289551 39.22153854370117 25.08285903930664 C 38.7662467956543 26.84558868408203 37.98321533203125 28.71562004089355 37.01930618286133 30.3681468963623 C 37.29624557495117 30.35111999511719 37.61856079101562 30.30490875244141 37.98102951049805 30.23014068603516 C 38.1684684753418 30.1913890838623 38.33401870727539 30.17251968383789 38.48674774169922 30.17251968383789 C 39.24727630615234 30.17251968383789 39.62448883056641 30.65885925292969 39.7164192199707 31.07533073425293 C 39.96906661987305 32.2198486328125 38.41398620605469 33.03961944580078 37.93135833740234 33.26359939575195 C 37.3513069152832 33.53319931030273 36.45140838623047 33.70756149291992 35.63927841186523 33.70756149291992 C 35.55909729003906 33.70756149291992 35.47992706298828 33.7057991027832 35.40397644042969 33.70233917236328 L 35.35354995727539 33.69880676269531 C 35.35130310058594 33.7221565246582 35.34910583496094 33.74520492553711 35.34696960449219 33.76763916015625 C 35.33078765869141 33.93727874755859 35.31245803833008 34.12955093383789 35.28610992431641 34.34920120239258 L 35.27402877807617 34.4499397277832 L 35.1520881652832 34.81593704223633 C 35.13616943359375 35.24979782104492 35.07962417602539 35.48711395263672 35.0085563659668 35.744140625 C 34.96338653564453 35.90748977661133 34.92438888549805 36.04856872558594 34.89569854736328 36.41790008544922 C 34.7969970703125 37.68603897094727 34.17274856567383 39.30611038208008 31.75925827026367 39.82331085205078 C 31.47587776184082 39.88402938842773 31.20430755615234 39.91482162475586 30.95206832885742 39.91482162475586 Z" stroke="none" fill="#000"/>
      </g>
      <g id="Group_4722" data-name="Group 4722" transform="translate(0 2)">
        <path id="Path_5014" data-name="Path 5014" d="M28.6,31.376a24.321,24.321,0,0,0,.257,5.525,1.971,1.971,0,0,0,2.522,1.39,2.421,2.421,0,0,0,2.247-2.282c.172-1,.5-3.759.545-4.325M26.482,19.076s-8-3.271-7.631,4.168c.079,1.583,2.268,11.975,4.879,8.836.954-1.148,1.817-2.048,1.817-2.048m5.258-11.552c-.277.087,4.452-1.729,7.14,1.705.949,1.213-.151,6.17-2.782,10.075" transform="translate(-18.838 -18.076)" fill="none" stroke="#fff" stroke-linecap="round" stroke-linejoin="round" stroke-width="1"/>
        <path id="Path_5015" data-name="Path 5015" d="M142.642,34.766s.171.844,2.664.33c1.092-.226.435.633-.673,1.147-.909.422-2.947.53-2.98-.053-.086-1.5,1.073-1.047.989-1.424-.076-.339-.594-.673-.936-1.5-.3-.725-4.1-6.286,1.055-5.46a6.55,6.55,0,0,0-6.172-4.985c-4.826-.079-4.667,5.934-4.667,5.934" transform="translate(-126.317 -22.582)" fill="none" stroke="#fff" stroke-linecap="round" stroke-linejoin="bevel" stroke-width="1"/>
        <path id="Path_5016" data-name="Path 5016" d="M139.271,269.04c-.673.751-.475.883-1.82,1.16-1.361.28-.561.78-.04.91a2.764,2.764,0,0,0,3.085-1,.923.923,0,0,0-.416-1.266A.611.611,0,0,0,139.271,269.04Z" transform="translate(-130.859 -256.342)" fill="none" stroke="#fff" stroke-linecap="round" stroke-linejoin="round" stroke-width="1"/>
        <path id="Path_5017" data-name="Path 5017" d="M133.107,131.3a3.556,3.556,0,0,1,.373-1.583,6.2,6.2,0,0,0,.5-4.774c-.472-2.182-3.637-.454-3.639-.158a14.851,14.851,0,0,1-.053,2.9,2.729,2.729,0,0,0,2.8,3.218" transform="translate(-124.739 -118.613)" fill="none" stroke="#fff" stroke-linecap="round" stroke-linejoin="round" stroke-width="1"/>
        <path id="Path_5018" data-name="Path 5018" d="M172.5,139.231c-.014.1.185.371.445.407a.479.479,0,0,0,.5-.275c.014-.1-.185-.212-.445-.249s-.482.017-.5.117Z" transform="translate(-164.888 -133.106)" fill="#fff" stroke="#fff" stroke-width="1"/>
        <path id="Path_5019" data-name="Path 5019" d="M313.888,135.074c.014.1-.185.371-.445.407a.48.48,0,0,1-.5-.275c-.014-.1.185-.212.445-.249s.482.017.5.117Z" transform="translate(-298.373 -129.155)" fill="#fff" stroke="#fff" stroke-width="1"/>
        <path id="Path_5020" data-name="Path 5020" d="M340.051,123.432c.043.793-.171,1.332-.2,2.176-.04,1.226.585,2.63-.356,4.035" transform="translate(-323.608 -118.212)" fill="none" stroke="#fff" stroke-linecap="round" stroke-linejoin="round" stroke-width="1"/>
      </g>
      <path id="Path_5026" data-name="Path 5026" d="M12.152-84.936v-6.456h4.067v.959H13.148v4.537h3.071v.959Zm.452-2.831v-.959h3.108v.959Zm4.989,2.831V-91.76h.95v6.824Zm4.464.092a2.693,2.693,0,0,1-1.323-.318,2.346,2.346,0,0,1-.9-.871,2.452,2.452,0,0,1-.327-1.273,2.832,2.832,0,0,1,.184-1.042,2.5,2.5,0,0,1,.512-.816,2.251,2.251,0,0,1,.784-.535,2.566,2.566,0,0,1,.991-.189,2.138,2.138,0,0,1,.876.18,2.2,2.2,0,0,1,.705.493,2.163,2.163,0,0,1,.461.742,2.506,2.506,0,0,1,.152.936l-.009.406H20.2l-.212-.756h3.348l-.138.157v-.221A1.069,1.069,0,0,0,23-88.5a1.254,1.254,0,0,0-.443-.378,1.246,1.246,0,0,0-.581-.138,1.711,1.711,0,0,0-.839.189,1.219,1.219,0,0,0-.516.553,2.065,2.065,0,0,0-.175.9,1.754,1.754,0,0,0,.212.881,1.445,1.445,0,0,0,.6.576,1.9,1.9,0,0,0,.895.2,1.832,1.832,0,0,0,.669-.12,2.35,2.35,0,0,0,.669-.433l.48.673a2.185,2.185,0,0,1-.539.387,3.363,3.363,0,0,1-.673.263A2.639,2.639,0,0,1,22.057-84.843ZM25.2-82.907v-6.871h.959v1.107l-.148-.083a1.037,1.037,0,0,1,.314-.53,2.051,2.051,0,0,1,.632-.415,1.923,1.923,0,0,1,.77-.161,2.117,2.117,0,0,1,1.162.323,2.282,2.282,0,0,1,.8.885,2.738,2.738,0,0,1,.3,1.291,2.781,2.781,0,0,1-.29,1.286,2.275,2.275,0,0,1-.8.895,2.063,2.063,0,0,1-1.144.327,2.057,2.057,0,0,1-.821-.171,2.217,2.217,0,0,1-.673-.438,1.129,1.129,0,0,1-.341-.553l.24-.129v3.237Zm2.4-2.822a1.374,1.374,0,0,0,.756-.212,1.5,1.5,0,0,0,.526-.581,1.778,1.778,0,0,0,.194-.839,1.786,1.786,0,0,0-.189-.835,1.476,1.476,0,0,0-.521-.576,1.391,1.391,0,0,0-.765-.212,1.414,1.414,0,0,0-.765.208,1.468,1.468,0,0,0-.526.576,1.778,1.778,0,0,0-.194.839,1.778,1.778,0,0,0,.194.839,1.5,1.5,0,0,0,.526.581A1.391,1.391,0,0,0,27.6-85.729Zm3.421.793V-91.76h.95v2.979l-.166.111a1.392,1.392,0,0,1,.36-.595,2.145,2.145,0,0,1,.636-.443,1.784,1.784,0,0,1,.756-.171,1.8,1.8,0,0,1,.922.217,1.328,1.328,0,0,1,.553.659,2.919,2.919,0,0,1,.184,1.116v2.951h-.95v-2.887a1.837,1.837,0,0,0-.111-.687.754.754,0,0,0-.341-.4,1.067,1.067,0,0,0-.572-.106,1.417,1.417,0,0,0-.507.088,1.233,1.233,0,0,0-.4.244,1.152,1.152,0,0,0-.267.364,1.045,1.045,0,0,0-.1.447v2.933h-.95Zm7.35.092a1.915,1.915,0,0,1-1.093-.332,2.38,2.38,0,0,1-.789-.9,2.774,2.774,0,0,1-.3-1.291,2.731,2.731,0,0,1,.3-1.3,2.3,2.3,0,0,1,.812-.89,2.108,2.108,0,0,1,1.148-.323,2.066,2.066,0,0,1,.692.111,1.741,1.741,0,0,1,.549.309,1.768,1.768,0,0,1,.387.457,1.428,1.428,0,0,1,.189.553l-.212-.074v-1.254h.959v4.842h-.959v-1.153l.221-.065a1.307,1.307,0,0,1-.226.484,1.82,1.82,0,0,1-.433.42,2.348,2.348,0,0,1-.581.3A2.021,2.021,0,0,1,38.371-84.843Zm.249-.876a1.391,1.391,0,0,0,.765-.212,1.462,1.462,0,0,0,.521-.586,1.863,1.863,0,0,0,.189-.853,1.814,1.814,0,0,0-.189-.839,1.469,1.469,0,0,0-.521-.581A1.391,1.391,0,0,0,38.62-89a1.352,1.352,0,0,0-.752.212,1.481,1.481,0,0,0-.516.581,1.814,1.814,0,0,0-.189.839,1.863,1.863,0,0,0,.189.853,1.474,1.474,0,0,0,.516.586A1.351,1.351,0,0,0,38.62-85.719Zm3.726.784v-4.842h.95v1l-.166.111a1.392,1.392,0,0,1,.36-.595,2.145,2.145,0,0,1,.636-.443,1.784,1.784,0,0,1,.756-.171,1.8,1.8,0,0,1,.922.217,1.328,1.328,0,0,1,.553.659,2.919,2.919,0,0,1,.184,1.116v2.951h-.95v-2.887a1.837,1.837,0,0,0-.111-.687.754.754,0,0,0-.341-.4,1.067,1.067,0,0,0-.572-.106,1.417,1.417,0,0,0-.507.088,1.233,1.233,0,0,0-.4.244,1.152,1.152,0,0,0-.267.364,1.044,1.044,0,0,0-.1.447v2.933h-.95Zm6.087,0v-6.077h.95v6.077Zm-1.005-3.919v-.922h3.08v.922Zm6.179,4.012a3.279,3.279,0,0,1-.973-.138,2.549,2.549,0,0,1-.812-.42,3.072,3.072,0,0,1-.65-.7l.682-.784a3.094,3.094,0,0,0,.867.895,1.882,1.882,0,0,0,.987.249,1.75,1.75,0,0,0,.636-.111,1.107,1.107,0,0,0,.452-.3.661.661,0,0,0,.166-.443.886.886,0,0,0-.055-.314.777.777,0,0,0-.171-.267,1.274,1.274,0,0,0-.3-.221,2.325,2.325,0,0,0-.42-.18,4.068,4.068,0,0,0-.553-.134,4.124,4.124,0,0,1-.867-.267,2.055,2.055,0,0,1-.618-.415,1.586,1.586,0,0,1-.369-.567,2.015,2.015,0,0,1-.12-.715,1.551,1.551,0,0,1,.171-.719,1.8,1.8,0,0,1,.47-.576,2.187,2.187,0,0,1,.705-.378,2.783,2.783,0,0,1,.876-.134,3.062,3.062,0,0,1,.913.129,2.276,2.276,0,0,1,.738.383,2.137,2.137,0,0,1,.535.623l-.7.692a2.251,2.251,0,0,0-.415-.512,1.622,1.622,0,0,0-.507-.314,1.635,1.635,0,0,0-.59-.106,1.632,1.632,0,0,0-.627.111.993.993,0,0,0-.42.309.743.743,0,0,0-.152.466.844.844,0,0,0,.074.355.8.8,0,0,0,.226.286,1.455,1.455,0,0,0,.41.221,4.158,4.158,0,0,0,.618.171,4.971,4.971,0,0,1,.9.281,2.729,2.729,0,0,1,.673.4,1.612,1.612,0,0,1,.42.516,1.363,1.363,0,0,1,.143.618,1.959,1.959,0,0,1-.286,1.07,1.861,1.861,0,0,1-.812.7A2.954,2.954,0,0,1,53.606-84.843Zm8.512.922-2.444-3.2.821-.544,2.416,3.172Zm-2.047-.922a3.14,3.14,0,0,1-1.259-.249,3.058,3.058,0,0,1-1.005-.7,3.154,3.154,0,0,1-.664-1.051,3.618,3.618,0,0,1-.235-1.323,3.618,3.618,0,0,1,.235-1.323,3.155,3.155,0,0,1,.664-1.051,3.058,3.058,0,0,1,1.005-.7,3.14,3.14,0,0,1,1.259-.249,3.14,3.14,0,0,1,1.259.249,3.025,3.025,0,0,1,1.005.7A3.207,3.207,0,0,1,63-89.478a3.592,3.592,0,0,1,.235,1.314A3.592,3.592,0,0,1,63-86.849a3.207,3.207,0,0,1-.664,1.056,3.025,3.025,0,0,1-1.005.7A3.14,3.14,0,0,1,60.071-84.843Zm0-.968a2.088,2.088,0,0,0,.862-.175,2,2,0,0,0,.678-.493,2.336,2.336,0,0,0,.447-.747,2.637,2.637,0,0,0,.161-.936,2.637,2.637,0,0,0-.161-.936,2.335,2.335,0,0,0-.447-.747,2,2,0,0,0-.678-.493,2.089,2.089,0,0,0-.862-.175,2.089,2.089,0,0,0-.862.175,2.075,2.075,0,0,0-.682.489,2.179,2.179,0,0,0-.447.742,2.735,2.735,0,0,0-.157.945,2.746,2.746,0,0,0,.157.941,2.171,2.171,0,0,0,.447.747,2.075,2.075,0,0,0,.682.489A2.088,2.088,0,0,0,60.071-85.812Zm4.51.876v-6.456h1v5.5H68.6v.959Z" transform="translate(15.804 99.441)"/>
    </g>
  </g>
</svg>
