<svg xmlns="http://www.w3.org/2000/svg" width="71.842" height="30" viewBox="0 0 71.842 30">
  <g id="ruby-on-rails" transform="translate(-0.453)">
    <rect id="Rectangle_4359" data-name="Rectangle 4359" width="71.842" height="30" transform="translate(0.453)" fill="none" opacity="0"/>
    <g id="Ruby_on_Rails-Logo.wine" transform="translate(3.879 3.712)">
      <path id="Path_5021" data-name="Path 5021" d="M161.045,76.12v2.8H166.1a2.89,2.89,0,0,0,2.874-2.874V74.961a2.854,2.854,0,0,0-2.874-2.874h-2.519v-1.3h4.991V67.977h-4.79a2.941,2.941,0,0,0-2.889,2.92v.973a2.888,2.888,0,0,0,2.889,2.874c3.477.015-.834,0,2.38,0V76.1m-32.185-.664s2.7-.232,2.7-3.724A3.691,3.691,0,0,0,133.4,67.9h-5.9V78.917h2.967V76.259l2.565,2.658h4.388Zm-1.143-2.256h-2.364V70.666h2.38a1.242,1.242,0,0,1,.664,1.252A1.275,1.275,0,0,1,132.831,73.184ZM144,67.977h-3.013a2.894,2.894,0,0,0-2.874,2.874v8.066h3.013V76.985h2.828v1.931h2.92V70.851A2.851,2.851,0,0,0,144,67.977Zm-.046,5.887h-2.843V71.191s0-.6.943-.6h1.035c.834,0,.85.6.85.6v2.673Zm4.3-5.887h3.137v10.94h-3.137Zm4.419,0v10.94h7.339V76.089h-4.218V67.977Z" transform="translate(-107.799 -57.408)" fill="#c00" fill-rule="evenodd"/>
      <path id="Path_5022" data-name="Path 5022" d="M7,30H19.207S16.873,19.358,24.6,15.047c1.684-.819,7.046-3.878,15.822,2.611.278-.232.541-.417.541-.417s-8.035-8.019-16.981-7.123c-4.5.4-10.028,4.5-13.273,9.9A26.727,26.727,0,0,0,7,30Z" transform="translate(-5.918 -8.495)" fill="#c00" fill-rule="evenodd"/>
      <path id="Path_5023" data-name="Path 5023" d="M7,30H19.207S16.873,19.358,24.6,15.047c1.684-.819,7.046-3.878,15.822,2.611.278-.232.541-.417.541-.417s-8.035-8.019-16.981-7.123c-4.5.4-10.028,4.5-13.273,9.9A26.727,26.727,0,0,0,7,30Z" transform="translate(-5.918 -8.495)" fill="#c00" fill-rule="evenodd"/>
      <path id="Path_5024" data-name="Path 5024" d="M7,26.5H19.207S16.874,15.851,24.6,11.54c1.684-.819,7.046-3.878,15.822,2.611.278-.232.541-.417.541-.417S32.928,5.715,23.981,6.611c-4.512.4-10.043,4.5-13.288,9.9A26.509,26.509,0,0,0,7,26.5ZM32.433,7.476l.062-1.035A7.556,7.556,0,0,0,31,5.9l-.062,1.02C31.444,7.09,31.939,7.275,32.433,7.476Z" transform="translate(-5.918 -4.988)" fill="#c00" fill-rule="evenodd"/>
      <path id="Path_5025" data-name="Path 5025" d="M25.047,5.763l-.062.973a8.616,8.616,0,0,1,1.53.185l.062-.958A10.942,10.942,0,0,0,25.047,5.763ZM19.33.943h.155L19.175,0a12.329,12.329,0,0,0-1.483.093L17.986,1A13.044,13.044,0,0,1,19.33.943Zm.742,5.686.355,1.066a9.776,9.776,0,0,1,1.344-.541l-.34-1.02A11.211,11.211,0,0,0,20.071,6.629ZM13.057,2.565l-.7-1.066c-.386.2-.788.417-1.205.664l.711,1.082c.4-.247.788-.479,1.19-.68Zm3.168,6.953.742,1.113a8.58,8.58,0,0,1,.912-1.1l-.7-1.051a8.548,8.548,0,0,0-.958,1.035Zm-2.24,4.975,1.252.989a12.34,12.34,0,0,1,.324-1.808l-1.113-.881a14.691,14.691,0,0,0-.464,1.7ZM7.216,7.154,6.119,6.2c-.4.386-.788.773-1.143,1.159l1.19,1.02A15.649,15.649,0,0,1,7.216,7.154ZM2.549,14.061.773,13.412C.479,14.076.155,14.849,0,15.266l1.777.649C1.978,15.39,2.3,14.633,2.549,14.061Zm11.2,4.357a15.7,15.7,0,0,0,.185,1.947l1.854.664a20.421,20.421,0,0,1-.371-2.009Z" transform="translate(0 0)" fill="#c00" fill-rule="evenodd"/>
    </g>
  </g>
</svg>
